<svg width="24" height="16" viewBox="0 0 24 16" fill="none" xmlns="http://www.w3.org/2000/svg">
<path d="M20.5089 0.522559C19.8498 0.589469 19.2063 0.765076 18.6046 1.04225L4.50087 7.33025C4.08272 7.51764 3.7938 7.30256 3.40426 7.01271C2.7258 6.51425 1.72149 5.80902 1.4141 5.57087C0.928564 5.19887 -0.275128 5.42871 0.0571796 6.17641L1.81656 10.1281C2.39441 11.4204 5.3981 11.1121 10.6439 8.77302C11.0898 8.57364 11.6704 8.30502 12.1726 8.08071L10.8452 15.1478C10.6744 15.8336 10.8498 16.0266 11.0759 15.9269L11.855 15.5807C12.2575 15.4007 12.815 14.7749 13.0956 14.1666L16.9033 5.94564C20.6972 4.17333 24.1689 2.39548 23.9123 1.82133C23.6104 1.1401 22.2959 0.356406 20.5089 0.522559ZM6.46056 1.47425C6.11903 1.46871 5.82549 1.50102 5.62426 1.59056L4.84518 1.93579C4.61995 2.03733 4.65318 2.29579 5.2781 2.6281L8.4221 4.53241L11.9123 2.97425L7.49995 1.61918C7.16161 1.52429 6.81195 1.47493 6.46056 1.47425Z" fill="white"/>
</svg>
