<svg width="36" height="36" viewBox="0 0 36 36" fill="none" xmlns="http://www.w3.org/2000/svg">
<path d="M6.75 15.75C5.5125 15.75 4.5 16.7625 4.5 18C4.5 19.2375 5.5125 20.25 6.75 20.25C7.9875 20.25 9 19.2375 9 18C9 16.7625 7.9875 15.75 6.75 15.75ZM29.25 15.75C28.0125 15.75 27 16.7625 27 18C27 19.2375 28.0125 20.25 29.25 20.25C30.4875 20.25 31.5 19.2375 31.5 18C31.5 16.7625 30.4875 15.75 29.25 15.75ZM18 15.75C16.7625 15.75 15.75 16.7625 15.75 18C15.75 19.2375 16.7625 20.25 18 20.25C19.2375 20.25 20.25 19.2375 20.25 18C20.25 16.7625 19.2375 15.75 18 15.75Z" fill="white"/>
</svg>
