<svg width="36" height="36" viewBox="0 0 36 36" fill="none" xmlns="http://www.w3.org/2000/svg">
<path d="M24 15.5C26.9999 15.5 28.5 16.2654 29.742 17.5C31.5 19.2474 31.5 21.1399 31.5 24.57C31.5 28 31.5 29.652 29.742 31.326C27.984 33 25.1565 33 19.5 33H16.5C10.8435 33 8.01447 33 6.25797 31.326C4.50147 29.652 4.49997 28.1399 4.49997 24.57C4.49997 21 4.5736 19.1741 6.25778 17.5C7.94197 15.8259 8.99992 15.5 12 15.5M18.0375 6.99996L18 24M18.0375 6.99996C17.7771 6.99664 17.5248 7.0902 17.3295 7.26246C15.9705 8.40996 13.5 11.3935 13.5 11.3935M18.0375 6.99996C18.2717 7.01379 18.4946 7.10568 18.6705 7.26096C20.0295 8.40996 22.5 11.395 22.5 11.395" stroke="white" stroke-width="2.25" stroke-linecap="round" stroke-linejoin="round"/>
</svg>
