<svg width="24" height="24" viewBox="0 0 24 24" fill="none" xmlns="http://www.w3.org/2000/svg">
<path d="M18.2379 4.05247C18.641 3.64934 19.2945 3.64934 19.6976 4.05247C20.1007 4.45559 20.1007 5.10903 19.6976 5.51215L13.3417 11.867L19.6835 17.9739C20.094 18.3693 20.1068 19.0229 19.7117 19.4336C19.341 19.8186 18.7433 19.8534 18.3317 19.5304L18.252 19.4618L11.881 13.3277L5.76203 19.4477C5.35891 19.8509 4.70547 19.8509 4.30235 19.4477C3.89922 19.0446 3.89922 18.3912 4.30235 17.988L10.3941 11.8953L4.31646 6.0424L4.24388 5.96478C3.90578 5.56576 3.91786 4.96769 4.28823 4.58271C4.65899 4.19769 5.25667 4.16289 5.66828 4.48594L5.74792 4.55448L11.8548 10.4346L18.2379 4.05247Z" fill="white"/>
</svg>
