<svg width="36" height="36" viewBox="0 0 36 36" fill="none" xmlns="http://www.w3.org/2000/svg">
<path fill-rule="evenodd" clip-rule="evenodd" d="M18 12.5C21.0376 12.5 23.5 14.9624 23.5 18C23.5 21.0376 21.0376 23.5 18 23.5C14.9624 23.5 12.5 21.0376 12.5 18C12.5 14.9624 14.9624 12.5 18 12.5ZM18 14.5C16.067 14.5 14.5 16.067 14.5 18C14.5 19.933 16.067 21.5 18 21.5C19.933 21.5 21.5 19.933 21.5 18C21.5 16.067 19.933 14.5 18 14.5Z" fill="white"/>
<path fill-rule="evenodd" clip-rule="evenodd" d="M18.5 3C18.7761 3 19 3.22386 19 3.5V6.58984C19 6.84854 19.1977 7.0637 19.4541 7.09766C24.3657 7.7464 28.2536 11.6343 28.9023 16.5459C28.9363 16.8023 29.1515 17 29.4102 17H32.5C32.7761 17 33 17.2239 33 17.5V18.5C33 18.7761 32.7761 19 32.5 19H29.4102C29.1515 19 28.9363 19.1977 28.9023 19.4541C28.2536 24.3656 24.3657 28.2526 19.4541 28.9014C19.1977 28.9353 19 29.1505 19 29.4092V32.5C19 32.7761 18.7761 33 18.5 33H17.5C17.2239 33 17 32.7761 17 32.5V29.4092C17 29.1505 16.8023 28.9353 16.5459 28.9014C11.6343 28.2526 7.74641 24.3656 7.09766 19.4541C7.0637 19.1977 6.84854 19 6.58984 19H3.5C3.22386 19 3 18.7761 3 18.5V17.5C3 17.2239 3.22386 17 3.5 17H6.58984C6.84854 17 7.0637 16.8023 7.09766 16.5459C7.7464 11.6343 11.6343 7.7464 16.5459 7.09766C16.8023 7.0637 17 6.84854 17 6.58984V3.5C17 3.22386 17.2239 3 17.5 3H18.5ZM18 9C13.0294 9 9 13.0294 9 18C9 22.9706 13.0294 27 18 27C22.9706 27 27 22.9706 27 18C27 13.0294 22.9706 9 18 9Z" fill="white"/>
</svg>
