<svg width="36" height="36" viewBox="0 0 36 36" fill="none" xmlns="http://www.w3.org/2000/svg">
<path d="M7.9257 6.67017C7.58198 6.67017 7.25234 6.80671 7.00929 7.04976C6.76624 7.2928 6.6297 7.62245 6.6297 7.96617C6.6297 8.30989 6.76624 8.63953 7.00929 8.88258C7.25234 9.12562 7.58198 9.26217 7.9257 9.26217H7.93722C8.28094 9.26217 8.61058 9.12562 8.85363 8.88258C9.09668 8.63953 9.23322 8.30989 9.23322 7.96617C9.23322 7.62245 9.09668 7.2928 8.85363 7.04976C8.61058 6.80671 8.28094 6.67017 7.93722 6.67017H7.9257Z" fill="white"/>
<path fill-rule="evenodd" clip-rule="evenodd" d="M7.43036 14.9875L7.9358 14.3596L7.25756 15.2006C7.4499 15.3558 7.68965 15.4403 7.93677 15.44C8.1839 15.4397 8.42346 15.3547 8.61548 15.1992L7.9358 14.3596L8.29148 14.7988L8.81708 15.4468L8.39084 14.9212L8.61548 15.1992H8.61692L8.61836 15.1963L8.62268 15.1934L8.6342 15.1833L8.67164 15.1531L8.80124 15.0408C9.44225 14.466 10.0276 13.832 10.5494 13.1472C11.4854 11.9145 12.5222 10.0843 12.5222 7.96604C12.533 7.35567 12.4221 6.74927 12.196 6.18222C11.9699 5.61517 11.6331 5.09884 11.2053 4.66338C10.7774 4.22791 10.2672 3.88203 9.70421 3.64592C9.14125 3.40981 8.5369 3.28821 7.92644 3.28821C7.31597 3.28821 6.71162 3.40981 6.14867 3.64592C5.58571 3.88203 5.07542 4.22791 4.6476 4.66338C4.21977 5.09884 3.88297 5.61517 3.65687 6.18222C3.43076 6.74927 3.31987 7.35567 3.33068 7.96604C3.33068 10.0857 4.37324 11.916 5.315 13.15C5.83963 13.8347 6.42785 14.4683 7.0718 15.0422L7.2014 15.1545L7.23884 15.1862L7.25036 15.1948L7.25468 15.1992L7.25756 15.2006L7.37276 15.0566L7.05884 15.4454L7.43036 14.9875ZM5.48924 7.96604C5.48924 7.31966 5.74601 6.69974 6.20308 6.24268C6.66014 5.78562 7.28005 5.52884 7.92644 5.52884C8.57282 5.52884 9.19273 5.78562 9.6498 6.24268C10.1069 6.69974 10.3636 7.31966 10.3636 7.96604C10.3636 9.3974 9.64652 10.764 8.8286 11.8411C8.55147 12.2056 8.25286 12.5532 7.93436 12.8822C7.6128 12.5526 7.3113 12.2039 7.03148 11.8382C6.21068 10.7625 5.49068 9.39452 5.49068 7.9646" fill="white"/>
<path d="M27.5328 23.4001C27.1891 23.4001 26.8595 23.5367 26.6164 23.7797C26.3734 24.0228 26.2368 24.3524 26.2368 24.6961C26.2368 25.0399 26.3734 25.3695 26.6164 25.6126C26.8595 25.8556 27.1891 25.9921 27.5328 25.9921H27.5443C27.8881 25.9921 28.2177 25.8556 28.4607 25.6126C28.7038 25.3695 28.8403 25.0399 28.8403 24.6961C28.8403 24.3524 28.7038 24.0228 28.4607 23.7797C28.2177 23.5367 27.8881 23.4001 27.5443 23.4001H27.5328Z" fill="white"/>
<path fill-rule="evenodd" clip-rule="evenodd" d="M26.8647 31.9291C27.0571 32.0846 27.2972 32.1693 27.5446 32.169C27.7921 32.1688 28.0319 32.0836 28.224 31.9276L28.2269 31.9247L28.2298 31.9219L28.2413 31.9132L28.2802 31.8815L28.4098 31.7692C29.0508 31.1944 29.6361 30.5604 30.158 29.8756C31.094 28.643 32.1308 26.8127 32.1308 24.6945C32.1308 23.4754 31.6465 22.3063 30.7845 21.4443C29.9225 20.5823 28.7533 20.098 27.5343 20.098C26.3152 20.098 25.1461 20.5823 24.2841 21.4443C23.4221 22.3063 22.9378 23.4754 22.9378 24.6945C22.9378 26.8156 23.9804 28.6444 24.9221 29.8785C25.4468 30.5632 26.035 31.1967 26.6789 31.7707L26.8085 31.883L26.846 31.9147L26.8589 31.9233L26.8618 31.9276L26.8647 31.9291ZM25.0978 24.6945C25.0978 24.0483 25.3545 23.4286 25.8114 22.9717C26.2684 22.5147 26.8881 22.258 27.5343 22.258C28.1805 22.258 28.8002 22.5147 29.2571 22.9717C29.7141 23.4286 29.9708 24.0483 29.9708 24.6945C29.9708 26.1259 29.2536 27.4939 28.4372 28.5695C28.1596 28.9341 27.8605 29.2817 27.5415 29.6107C27.22 29.2815 26.9185 28.9333 26.6386 28.5681C25.8178 27.491 25.0978 26.1244 25.0978 24.6945Z" fill="white"/>
<path d="M11.4481 15.4468H15.4225C16.2447 15.4468 17.0333 15.7735 17.6147 16.3549C18.1961 16.9363 18.5228 17.7249 18.5228 18.5472C18.5228 19.3694 18.1961 20.158 17.6147 20.7394C17.0333 21.3208 16.2447 21.6475 15.4225 21.6475H8.59686C7.20154 21.6475 5.86338 22.2018 4.87674 23.1884C3.8901 24.175 3.33582 25.5132 3.33582 26.9085C3.33582 28.3038 3.8901 29.642 4.87674 30.6286C5.86338 31.6153 7.20154 32.1696 8.59686 32.1696H23.9357C23.6765 31.8816 23.4001 31.5532 23.1207 31.1889C22.831 30.809 22.5605 30.4149 22.31 30.0081H8.59686C7.7746 30.0081 6.98602 29.6815 6.4046 29.1001C5.82318 28.5186 5.49654 27.7301 5.49654 26.9078C5.49654 26.0855 5.82318 25.297 6.4046 24.7155C6.98602 24.1341 7.7746 23.8075 8.59686 23.8075H15.4225C16.8178 23.8075 18.1559 23.2532 19.1426 22.2666C20.1292 21.2799 20.6835 19.9418 20.6835 18.5464C20.6835 17.1511 20.1292 15.813 19.1426 14.8263C18.1559 13.8397 16.8178 13.2854 15.4225 13.2854H13.0681C12.8209 13.6871 12.5542 14.0763 12.2689 14.4518C11.9881 14.8233 11.7073 15.156 11.4481 15.4454" fill="white"/>
</svg>
