<!-- icon666.com - MILLIONS OF FREE VECTOR ICONS --><svg version="1.1" id="Capa_1" xmlns="http://www.w3.org/2000/svg" xmlns:xlink="http://www.w3.org/1999/xlink" x="0px" y="0px" viewBox="0 0 512.001 512.001" style="enable-background:new 0 0 512.001 512.001;" xml:space="preserve"><g><path style="fill:#4398D1;" d="M291.31,159.898c9.754,0,17.655-7.901,17.655-17.655s-7.901-17.655-17.655-17.655h-44.138v35.31 H291.31z"></path><path style="fill:#4398D1;" d="M291.31,389.415c9.754,0,17.655-7.901,17.655-17.655s-7.901-17.655-17.655-17.655h-44.138v35.31 H291.31z"></path><path style="fill:#4398D1;" d="M247.172,80.449c9.754,0,17.655-7.901,17.655-17.655s-7.901-17.655-17.655-17.655h-52.966v35.31 H247.172z"></path><path style="fill:#4398D1;" d="M247.172,468.863c9.754,0,17.655-7.901,17.655-17.655s-7.901-17.655-17.655-17.655h-52.966v35.31 H247.172z"></path></g><g><path style="fill:#3E8CC7;" d="M282.483,142.242h-35.31v17.655h44.138c9.754,0.071,17.708-7.777,17.779-17.532 c0.044-6.4-3.381-12.323-8.951-15.484C298.982,135.728,291.407,142.322,282.483,142.242z"></path><path style="fill:#3E8CC7;" d="M300.138,356.4c-1.156,8.845-8.73,15.439-17.655,15.36h-35.31v17.655h44.138 c9.754,0.071,17.708-7.777,17.779-17.532C309.133,365.483,305.708,359.56,300.138,356.4z"></path><path style="fill:#3E8CC7;" d="M238.345,62.794h-44.138v17.655h52.966c9.754,0.071,17.708-7.777,17.779-17.532 c0.044-6.4-3.381-12.323-8.951-15.484C254.844,56.279,247.27,62.874,238.345,62.794z"></path><path style="fill:#3E8CC7;" d="M256,435.848c-1.156,8.845-8.73,15.439-17.655,15.36h-44.138v17.655h52.966 c9.754,0.071,17.708-7.777,17.779-17.532C264.995,444.931,261.57,439.008,256,435.848z"></path></g><path style="fill:#CFCFCF;" d="M488.43,301.139H114.759L0,248.173v-35.31h429.639c7.636,0,15.078,2.481,21.186,7.062l51.73,38.841 c5.941,4.431,9.437,11.396,9.446,18.803l0,0c0.053,12.968-10.425,23.517-23.393,23.57 C488.545,301.139,488.492,301.139,488.43,301.139z"></path><polygon style="fill:#DE4C3C;" points="35.31,124.587 0,124.587 0,212.863 70.621,212.863 "></polygon><g><rect x="397.24" y="239.341" style="fill:#126099;" width="17.655" height="17.655"></rect><rect x="361.93" y="239.341" style="fill:#126099;" width="17.655" height="17.655"></rect><rect x="326.62" y="239.341" style="fill:#126099;" width="17.655" height="17.655"></rect><rect x="291.31" y="239.341" style="fill:#126099;" width="17.655" height="17.655"></rect><rect x="256" y="239.341" style="fill:#126099;" width="17.655" height="17.655"></rect><rect x="220.69" y="239.341" style="fill:#126099;" width="17.655" height="17.655"></rect><rect x="185.38" y="239.341" style="fill:#126099;" width="17.655" height="17.655"></rect><rect x="150.07" y="239.341" style="fill:#126099;" width="17.655" height="17.655"></rect></g><g><polygon style="fill:#CFCFCF;" points="176.552,1.001 105.931,1.001 211.862,212.863 317.793,212.863 "></polygon><polygon style="fill:#CFCFCF;" points="176.552,511.001 105.931,511.001 211.862,299.139 317.793,299.139 "></polygon></g><polygon style="fill:#126099;" points="432.552,257.001 500.259,257.001 476.69,239.346 432.552,239.346 "></polygon><polygon style="fill:#CF4737;" points="0,212.422 0,212.863 70.621,212.863 57.026,178.789 "></polygon><polygon style="fill:#C4C4C4;" points="198.621,186.38 211.862,212.863 317.793,212.863 300.138,186.38 "></polygon></svg>