<!-- icon666.com - MILLIONS OF FREE VECTOR ICONS --><svg version="1.1" id="Layer_1" xmlns="http://www.w3.org/2000/svg" xmlns:xlink="http://www.w3.org/1999/xlink" x="0px" y="0px" viewBox="0 0 511.999 511.999" style="enable-background:new 0 0 511.999 511.999;" xml:space="preserve"><g><path style="fill:#D3D8DD;" d="M155.508,283.718l-49.715,51.641c-10.839,10.838-15.443,21.348-14.834,31.844L8.075,312.171 l54.155-54.155L155.508,283.718z"></path><path style="fill:#D3D8DD;" d="M85.827,51.07l2.253,2.254l220.165,72.084L203.711,233.989L14.398,94.585L59.344,49.64 C69.927,39.057,81.149,46.846,85.827,51.07z"></path></g><path style="fill:#C8CACC;" d="M80.729,367.203c-0.608-10.495,3.995-21.007,14.834-31.844l49.714-51.641l-24.321-6.702 l-45.852,47.575c-9.858,9.857-14.566,19.444-14.881,28.997L80.729,367.203z"></path><polygon style="fill:#B9BDC1;" points="193.481,233.989 298.015,125.408 274.496,117.708 175.316,220.613 "></polygon><path style="fill:#F2F2F2;" d="M415.866,175.645L176.642,406.208c-18.465,18.464-35.98,18.902-54.097,6.136l50.597-50.596 c5.951-5.952,5.951-15.602,0-21.553c-5.95-5.951-15.6-5.951-21.552,0.001l-50.809,50.811c-13.899-18.669-13.979-36.659,5.012-55.648 L399.99,30.108c22.615-22.615,68.126-31.457,90.742-8.84c22.617,22.616,13.773,68.128-8.841,90.742l-47.405,45.691"></path><g><path style="fill:#D3D8DD;" d="M172.148,344.153L448.026,57.909c12.222-12.223,30.859-20.569,49.259-22.506 c-1.918-3.63-4.322-6.979-7.275-9.93c-22.617-22.617-68.128-13.774-90.743,8.84L105.072,339.563 c-18.991,18.989-18.912,36.979-5.012,55.648l50.809-50.811C156.732,338.536,166.18,338.461,172.148,344.153z"></path><path style="fill:#D3D8DD;" d="M176.642,406.208l51.642-49.714l25.699,93.276l-54.156,54.155l-55.043-82.902 C155.285,421.634,165.799,417.05,176.642,406.208z"></path><path style="fill:#D3D8DD;" d="M386.593,203.755l72.081,220.166l2.255,2.253c4.225,4.679,12.013,15.901,1.43,26.482l-44.945,44.945 L278.011,308.289L386.593,203.755z"></path></g><g><path style="fill:#80D6FF;" d="M214.081,94.577l38.302-38.302c5.951-5.95,15.597-5.948,21.55,0.001 c5.951,5.951,5.951,15.599,0,21.552l-27.381,27.382L214.081,94.577z"></path><path style="fill:#80D6FF;" d="M126.38,65.863l40.991-40.991c5.951-5.951,15.598-5.951,21.551,0c5.951,5.951,5.95,15.599,0,21.551 L158.85,76.495L126.38,65.863z"></path><path style="fill:#80D6FF;" d="M417.422,297.92l38.303-38.302c5.949-5.949,5.949-15.598-0.002-21.551 c-5.951-5.951-15.598-5.951-21.551,0L406.79,265.45L417.422,297.92z"></path><path style="fill:#80D6FF;" d="M446.136,385.62l40.991-40.991c5.951-5.95,5.951-15.599,0-21.551c-5.949-5.951-15.6-5.951-21.551,0 l-30.072,30.07L446.136,385.62z"></path><path style="fill:#80D6FF;" d="M87.195,405.108c-5.95,5.951-5.951,15.599,0,21.553l0,0c5.951,5.95,15.6,5.95,21.552,0 l64.652-64.655c5.952-5.951,5.952-15.602,0.001-21.553l0,0c-5.951-5.95-15.599-5.95-21.552,0.002L87.195,405.108z"></path><polygon style="fill:#80D6FF;" points="203.711,233.989 14.398,94.585 43.32,65.665 235.146,201.338 "></polygon><polyline style="fill:#80D6FF;" points="399.136,401.947 310.663,276.855 278.011,308.289 417.414,497.602 446.336,468.681 414.584,423.787 "></polyline><path style="fill:#80D6FF;" d="M105.794,335.359c-10.839,10.838-15.443,21.348-14.834,31.844L8.075,312.171l29.84-29.838 l74.457,46.191L105.794,335.359z"></path><path style="fill:#80D6FF;" d="M176.642,406.208c-10.837,10.837-21.348,15.443-31.844,14.833l55.028,82.883l29.841-29.839 l-46.192-74.457L176.642,406.208z"></path></g><g><polygon style="fill:#6ABDD3;" points="196.189,232.533 227.623,199.882 209.177,186.836 178.024,219.158 "></polygon><path style="fill:#6ABDD3;" d="M83.437,365.747c-0.608-10.495,3.996-21.007,14.834-31.844l6.578-6.833L85.555,315.1l-7.743,8.034 c-9.858,9.857-14.566,19.444-14.881,28.997L83.437,365.747z"></path><path style="fill:#6ABDD3;" d="M417.073,275.893l-0.011-0.034l27.383-27.383c4.101-4.103,9.958-5.375,15.151-3.823 c-0.687-2.411-1.974-4.688-3.873-6.587c-5.951-5.951-15.598-5.951-21.551,0L406.79,265.45l5.113,15.612L417.073,275.893z"></path><path style="fill:#6ABDD3;" d="M448.3,360.96l-0.011-0.034l27.383-27.383c4.155-4.157,10.114-5.401,15.36-3.749 c-0.678-2.458-1.972-4.782-3.904-6.714c-5.949-5.951-15.6-5.951-21.551,0l-30.073,30.07l5.084,15.523L448.3,360.96z"></path><path style="fill:#6ABDD3;" d="M264.228,67.042c3.893-3.893,9.363-5.22,14.348-4.021c-0.734-2.069-1.911-4.014-3.567-5.669 c-5.951-5.949-15.598-5.951-21.55-0.001l-38.302,38.302l15.413,5.046L264.228,67.042z"></path><path style="fill:#6ABDD3;" d="M179.216,35.64c3.893-3.893,9.363-5.222,14.349-4.023c-0.734-2.067-1.911-4.013-3.567-5.668 c-5.951-5.951-15.598-5.951-21.551,0L127.456,66.94l15.412,5.046L179.216,35.64z"></path><path style="fill:#6ABDD3;" d="M100.604,414.019l64.653-64.652c3.372-3.372,7.932-4.83,12.332-4.381 c-0.738-1.641-1.764-3.185-3.112-4.532c-5.951-5.95-15.599-5.95-21.552,0.002l-64.653,64.652c-5.95,5.951-5.951,15.599,0,21.553 c2.58,2.579,5.853,4.037,9.221,4.379C94.974,425.434,96,418.624,100.604,414.019z"></path></g><g><path style="fill:#231F20;" d="M443.081,102.727c1.577,1.576,3.645,2.366,5.711,2.366c2.066,0,4.134-0.788,5.711-2.366 c9.584-9.586,8.549-23.502-2.579-34.629l-8.021-8.023c-11.128-11.126-25.044-12.163-34.631-2.58 c-3.154,3.154-3.155,8.266-0.001,11.421c3.152,3.154,8.265,3.155,11.42,0.001c3.054-3.057,7.022-2.19,11.789,2.577l8.021,8.023 c2.471,2.471,4.022,5.018,4.369,7.171c0.193,1.205,0.131,2.695-1.79,4.616C439.928,94.459,439.928,99.573,443.081,102.727z"></path><path style="fill:#231F20;" d="M440.089,163.516l47.406-45.691c0.036-0.034,0.07-0.069,0.107-0.104 c12.365-12.366,21.218-31.073,23.68-50.041c2.762-21.281-2.508-39.792-14.838-52.122c-12.331-12.33-30.841-17.601-52.122-14.839 c-18.969,2.462-37.676,11.314-50.043,23.681c-0.034,0.036-0.069,0.07-0.104,0.107l-88.309,91.627l-44.309-14.508l18.087-18.087 c9.089-9.09,9.089-23.882-0.001-32.973c-4.405-4.403-10.26-6.828-16.486-6.828c-6.227,0-12.08,2.425-16.483,6.828l-34.795,34.795 l-38.021-12.449l20.777-20.778c9.09-9.09,9.09-23.881,0-32.971c-4.404-4.404-10.259-6.829-16.486-6.829 c-6.227,0-12.082,2.425-16.486,6.829l-37.484,37.484L92.426,46.251l-0.888-0.889c-0.097-0.097-0.197-0.192-0.298-0.283 c-4.458-4.026-11.592-8.826-20.263-8.826c-6.323,0-12.32,2.655-17.343,7.679L37.613,59.952c-0.001,0.001-0.002,0.002-0.003,0.003 L8.688,88.875c-0.208,0.208-0.404,0.426-0.586,0.653c-1.094,1.362-1.717,3.042-1.775,4.788c-0.01,0.291-0.003,0.584,0.018,0.877 c0.177,2.347,1.369,4.5,3.264,5.895L191.369,234.93l-38.3,39.739l-88.693-24.438c-2.8-0.772-5.801,0.02-7.855,2.075l-45.179,45.178 l-8.977,8.976c-0.356,0.356-0.665,0.747-0.944,1.155c-0.898,1.312-1.401,2.859-1.42,4.457c-0.003,0.299,0.01,0.601,0.04,0.901 c0.241,2.41,1.551,4.585,3.57,5.924l79.717,52.928c1.002,6.098,3.418,12.264,7.242,18.486l-9.084,9.084 c-9.089,9.09-9.089,23.882,0,32.973c4.404,4.403,10.259,6.828,16.487,6.828s12.083-2.425,16.486-6.828l9.562-9.562 c5.431,3.039,10.82,4.996,16.156,5.872l52.923,79.71c0.168,0.252,0.348,0.493,0.541,0.723c1.347,1.605,3.276,2.636,5.384,2.846 c0.269,0.027,0.537,0.04,0.804,0.04c0.266,0,0.532-0.013,0.795-0.039c1.388-0.138,2.716-0.639,3.857-1.444 c0.374-0.264,0.73-0.553,1.058-0.881l29.841-29.839c0.003-0.003,0.005-0.008,0.01-0.011l24.306-24.305 c2.053-2.054,2.847-5.054,2.075-7.855l-24.437-88.693l39.739-38.299l133.841,181.758c1.396,1.895,3.548,3.087,5.895,3.264 c0.203,0.016,0.406,0.023,0.608,0.023c0.267,0,0.532-0.013,0.796-0.039c0.474-0.047,0.94-0.142,1.394-0.27 c0.192-0.054,0.379-0.118,0.566-0.186c0.356-0.129,0.706-0.276,1.042-0.454c0.697-0.371,1.343-0.846,1.912-1.416l5.866-5.866 l23.054-23.053c0.008-0.008,0.014-0.016,0.023-0.024l16.001-16.001c10.636-10.635,10.197-25.045-1.146-37.606 c-0.093-0.102-0.188-0.202-0.286-0.3l-0.888-0.887l-10.394-31.749l37.483-37.484c4.404-4.403,6.83-10.259,6.83-16.487 c0-6.228-2.426-12.083-6.828-16.485c-4.404-4.404-10.259-6.83-16.488-6.83c-6.228,0-12.084,2.426-16.485,6.829l-20.778,20.777 l-12.448-38.021l34.796-34.795c9.089-9.089,9.088-23.881-0.002-32.971c-4.404-4.404-10.259-6.829-16.487-6.829 c-6.227,0-12.083,2.425-16.487,6.829l-18.087,18.087l-14.506-44.309l25.601-24.675c3.211-3.096,3.305-8.208,0.21-11.419 c-3.096-3.211-8.206-3.306-11.419-0.211l-28.449,27.418c-0.286,0.21-0.561,0.438-0.82,0.688L272.411,302.471 c-0.365,0.351-0.69,0.729-0.976,1.128c-0.019,0.027-0.036,0.057-0.055,0.084l-100.342,96.709c-0.003,0.003-0.008,0.008-0.011,0.011 c-0.032,0.031-0.064,0.062-0.095,0.094c-0.02,0.02-0.041,0.039-0.061,0.059c-0.636,0.634-1.267,1.236-1.898,1.822 c-0.27,0.251-0.538,0.492-0.808,0.733c-0.351,0.315-0.701,0.62-1.05,0.921c-0.363,0.311-0.726,0.625-1.088,0.919 c-0.094,0.078-0.187,0.146-0.281,0.223c-7.005,5.633-13.744,8.181-20.492,7.786c-0.069-0.004-0.137,0.004-0.206,0.002 c-2.939-0.196-5.918-0.931-8.976-2.207l43.037-43.038c4.405-4.404,6.83-10.259,6.831-16.488c0-6.228-2.426-12.084-6.83-16.488 c-0.043-0.043-0.092-0.08-0.136-0.123c-0.043-0.043-0.079-0.092-0.122-0.135c-4.403-4.404-10.259-6.83-16.487-6.83 c-6.228,0-12.084,2.426-16.487,6.83l-43.641,43.642c-2.378-4.821-3.449-9.435-3.211-13.98c0.004-0.082,0.011-0.164,0.016-0.244 c0.041-0.655,0.111-1.307,0.207-1.959c0.013-0.083,0.019-0.167,0.033-0.25c0.099-0.63,0.235-1.26,0.384-1.889 c0.07-0.289,0.149-0.576,0.229-0.865c0.09-0.326,0.192-0.652,0.296-0.979c0.422-1.31,0.949-2.625,1.596-3.945 c0.062-0.128,0.126-0.256,0.192-0.384c0.704-1.394,1.538-2.795,2.494-4.206c0.135-0.198,0.27-0.396,0.409-0.594 c0.282-0.403,0.571-0.804,0.874-1.208c0.331-0.438,0.675-0.878,1.029-1.318c0.294-0.367,0.601-0.734,0.912-1.103 c0.396-0.467,0.801-0.936,1.224-1.406c0.2-0.223,0.402-0.446,0.608-0.669c0.633-0.684,1.281-1.369,1.972-2.059 c0.029-0.029,0.058-0.058,0.086-0.088c0.008-0.008,0.014-0.014,0.022-0.022l0.16-0.167l96.55-100.177 c0.427-0.298,0.833-0.637,1.207-1.026l31.435-32.651c0.001-0.001,0.002-0.003,0.003-0.004l73.095-75.925 c0.251-0.261,0.48-0.537,0.691-0.825l90.999-94.418c19.861-19.806,60.306-27.751,79.27-8.789 c11.748,11.749,11.46,29.24,10.242,38.622c-2.015,15.526-9.129,30.714-19.032,40.648l-47.353,45.64 c-3.211,3.096-3.305,8.207-0.21,11.418C431.768,166.518,436.878,166.613,440.089,163.516z M258.093,61.986 c1.351-1.352,3.15-2.098,5.063-2.098c1.913,0,3.713,0.745,5.065,2.098c1.354,1.354,2.099,3.152,2.099,5.065 s-0.745,3.712-2.099,5.065L244.35,95.988l-15.263-4.997L258.093,61.986z M173.082,30.582c1.354-1.354,3.152-2.099,5.065-2.099 s3.712,0.745,5.065,2.099c1.352,1.354,2.098,3.152,2.098,5.065s-0.745,3.712-2.098,5.065l-26.563,26.563l-15.262-4.997 L173.082,30.582z M471.289,328.788c1.351-1.352,3.151-2.098,5.063-2.098c1.913,0,3.712,0.745,5.065,2.099 c1.352,1.352,2.098,3.151,2.098,5.064s-0.745,3.712-2.099,5.065l-31.696,31.696l-4.997-15.263L471.289,328.788z M201.095,491.235 l-42.433-63.913c5.922-1.876,11.764-5.147,17.511-9.818c0.022-0.017,0.043-0.037,0.066-0.055c0.058-0.047,0.117-0.098,0.176-0.146 c0.087-0.072,0.176-0.146,0.263-0.219c0.685-0.566,1.368-1.152,2.049-1.758c0.169-0.15,0.338-0.297,0.507-0.449 c0.141-0.127,0.282-0.258,0.423-0.387c0.593-0.544,1.186-1.108,1.777-1.683c0.15-0.145,0.301-0.277,0.451-0.425l37.545,60.519 L201.095,491.235z M231.16,461.171l-37.38-60.252l30.323-29.193l20.844,75.655L231.16,461.171z M439.885,243.777 c1.352-1.354,3.152-2.099,5.064-2.099c1.912,0,3.712,0.745,5.064,2.099c2.794,2.793,2.795,7.337,0.002,10.129l-29.008,29.008 l-4.997-15.262L439.885,243.777z M399.116,267.959c0,0.001,0,0.002,0.001,0.003l7.453,22.764l44.43,135.707 c0.395,1.207,1.069,2.303,1.967,3.2l2.1,2.098c7.921,8.875,3.32,13.476,1.582,15.213l-9.252,9.252l-26.221-37.074 c-2.575-3.642-7.615-4.506-11.257-1.93c-3.642,2.576-4.505,7.615-1.93,11.257l27.82,39.335l-17.463,17.463L288.802,309.324 l20.773-20.021l82.967,117.307c2.575,3.642,7.615,4.507,11.257,1.93c3.642-2.576,4.505-7.615,1.93-11.257l-84.39-119.32 l61.611-59.379L399.116,267.959z M70.977,52.402c2.678,0,6.057,1.65,9.294,4.532l2.098,2.099c0.897,0.897,1.993,1.57,3.199,1.965 l207.848,68.052l-59.379,61.61L55.803,64.602l9.252-9.252C68.003,52.402,70.241,52.402,70.977,52.402z M26.752,93.653 l17.463-17.463l178.482,126.235l-20.021,20.773L26.752,93.653z M99.266,330.49c-0.591,0.607-1.168,1.216-1.728,1.825 c-0.14,0.152-0.281,0.304-0.419,0.457c-0.113,0.125-0.225,0.25-0.336,0.376c-5.903,6.609-9.941,13.346-12.108,20.19l-63.909-42.433 l18.332-18.331l60.52,37.544C99.496,330.24,99.388,330.366,99.266,330.49z M64.617,267.052l75.657,20.846l-29.193,30.324 l-60.254-37.381L64.617,267.052z M103.037,420.949c-1.352,1.352-3.152,2.098-5.065,2.098c-1.913,0-3.713-0.745-5.065-2.096 c-2.793-2.793-2.793-7.339,0-10.133l64.653-64.652c1.354-1.353,3.153-2.1,5.066-2.1c1.852,0,3.593,0.704,4.931,1.976 c1.271,1.336,1.974,3.076,1.974,4.927c0,1.913-0.745,3.714-2.099,5.067l-50.597,50.596c-0.576,0.576-1.047,1.233-1.419,1.938 L103.037,420.949z"></path></g></svg>