<svg width="24" height="23" viewBox="0 0 24 23" fill="none" xmlns="http://www.w3.org/2000/svg">
<path d="M21.75 9C22.0625 9 22.3555 9.05859 22.6289 9.17578C22.9023 9.29297 23.1406 9.45312 23.3438 9.65625C23.5469 9.85938 23.707 10.0977 23.8242 10.3711C23.9414 10.6445 24 10.9375 24 11.25C24 11.5625 23.9414 11.8555 23.8242 12.1289C23.707 12.4023 23.5469 12.6406 23.3438 12.8438C23.1406 13.0469 22.9023 13.207 22.6289 13.3242C22.3555 13.4414 22.0625 13.5 21.75 13.5H15.993C15.6143 13.5 15.268 13.714 15.0986 14.0528L11.1514 21.9472C10.982 22.286 10.6357 22.5 10.257 22.5H9.14524C8.46268 22.5 7.98071 21.8313 8.19656 21.1838L10.3191 14.8162C10.5349 14.1687 10.0529 13.5 9.37039 13.5H3.60527C3.23318 13.5 2.89186 13.7066 2.71931 14.0363L2.49554 14.4637C2.32298 14.7934 1.98166 15 1.60957 15H1.39292C0.708783 15 0.226654 14.3284 0.445425 13.6802L1.1577 11.5698C1.22771 11.3623 1.22771 11.1377 1.1577 10.9302L0.445425 8.81978C0.226654 8.17157 0.708783 7.5 1.39292 7.5H1.60957C1.98166 7.5 2.32298 7.70659 2.49554 8.03625L2.71931 8.46375C2.89186 8.79341 3.23318 9 3.60527 9H9.37039C10.0529 9 10.5349 8.3313 10.3191 7.68377L8.19655 1.31623C7.98071 0.668694 8.46268 0 9.14524 0H10.257C10.6357 0 10.982 0.214002 11.1514 0.552786L15.0986 8.44721C15.268 8.786 15.6143 9 15.993 9H21.75Z" fill="white"/>
</svg>
